<svg id="visual" viewBox="0 0 1600 200" width="1600" height="200" xmlns="http://www.w3.org/2000/svg" xmlns:xlink="http://www.w3.org/1999/xlink" version="1.1"><path d="M0 83L178 82L356 63L533 54L711 51L889 8L1067 41L1244 90L1422 100L1600 15L1600 201L1422 201L1244 201L1067 201L889 201L711 201L533 201L356 201L178 201L0 201Z" fill="#fcaf3c"></path><path d="M0 86L178 41L356 111L533 67L711 117L889 57L1067 103L1244 83L1422 37L1600 105L1600 201L1422 201L1244 201L1067 201L889 201L711 201L533 201L356 201L178 201L0 201Z" fill="#e18f34"></path><path d="M0 67L178 66L356 114L533 88L711 113L889 78L1067 66L1244 103L1422 126L1600 92L1600 201L1422 201L1244 201L1067 201L889 201L711 201L533 201L356 201L178 201L0 201Z" fill="#c4702d"></path><path d="M0 154L178 124L356 144L533 102L711 116L889 125L1067 112L1244 131L1422 145L1600 120L1600 201L1422 201L1244 201L1067 201L889 201L711 201L533 201L356 201L178 201L0 201Z" fill="#a55425"></path><path d="M0 134L178 166L356 150L533 159L711 137L889 124L1067 129L1244 163L1422 122L1600 136L1600 201L1422 201L1244 201L1067 201L889 201L711 201L533 201L356 201L178 201L0 201Z" fill="#85391d"></path><path d="M0 180L178 189L356 155L533 156L711 149L889 150L1067 191L1244 189L1422 158L1600 176L1600 201L1422 201L1244 201L1067 201L889 201L711 201L533 201L356 201L178 201L0 201Z" fill="#652114"></path></svg>